<svg width="20" height="23" viewBox="0 0 20 23" fill="none" xmlns="http://www.w3.org/2000/svg">
<path d="M16.47 4.45C15.27 3.67 14.41 2.42 14.14 0.97C14.08 0.66 14.05 0.33 14.05 0H10.23V15.29C10.16 17 8.75 18.38 7.02 18.38C6.48 18.38 5.98 18.25 5.53 18.01C4.51 17.47 3.81 16.4 3.81 15.17C3.81 13.4 5.25 11.96 7.02 11.96C7.35 11.96 7.67 12.01 7.97 12.11V8.21C7.66 8.17 7.35 8.14 7.02 8.14C3.15 8.14 0 11.29 0 15.16C0 17.54 1.19 19.64 3 20.91C4.14 21.71 5.53 22.18 7.02 22.18C10.89 22.18 14.04 19.03 14.04 15.16V7.42C15.54 8.49 17.37 9.13 19.35 9.13V5.31C18.28 5.31 17.29 4.99 16.46 4.45H16.47Z" fill="white"/>
</svg>
