<?xml version="1.0" encoding="utf-8"?>
<!-- Generator: Adobe Illustrator 25.1.0, SVG Export Plug-In . SVG Version: 6.00 Build 0)  -->
<svg version="1.1" id="Capa_1" xmlns="http://www.w3.org/2000/svg" xmlns:xlink="http://www.w3.org/1999/xlink" x="0px" y="0px"
	 width="13.2px" height="13.9px" viewBox="0 0 13.2 13.9" style="enable-background:new 0 0 13.2 13.9;" xml:space="preserve">
<style type="text/css">
	.st0{fill:#FFFFFF;}
</style>
<path class="st0" d="M11.9,4.3c0,0.1,0,0.2,0,0.3c0,3.6-2.7,7.7-7.7,7.7c-1.5,0-3-0.4-4.2-1.2c0.2,0,0.4,0,0.6,0
	c1.3,0,2.4-0.4,3.4-1.2c-1.2,0-2.2-0.8-2.5-1.9c0.2,0,0.3,0,0.5,0c0.2,0,0.5,0,0.7-0.1C1.5,7.8,0.5,6.7,0.5,5.4c0,0,0,0,0,0
	c0.4,0.2,0.8,0.3,1.2,0.3C1,5.2,0.6,4.4,0.6,3.5c0-0.5,0.1-1,0.4-1.4c1.3,1.6,3.3,2.7,5.6,2.8c0-0.2-0.1-0.4-0.1-0.6
	c0-1.5,1.2-2.7,2.7-2.7c0.8,0,1.5,0.3,2,0.8c0.6-0.1,1.2-0.3,1.7-0.6c-0.2,0.6-0.6,1.2-1.2,1.5c0.5-0.1,1.1-0.2,1.6-0.4
	C12.8,3.4,12.4,3.9,11.9,4.3z"/>
</svg>
