<?xml version="1.0" encoding="utf-8"?>
<!-- Generator: Adobe Illustrator 25.1.0, SVG Export Plug-In . SVG Version: 6.00 Build 0)  -->
<svg version="1.1" id="Capa_1" xmlns="http://www.w3.org/2000/svg" xmlns:xlink="http://www.w3.org/1999/xlink" x="0px" y="0px"
	 width="15px" height="15px" viewBox="0 0 15 15" style="enable-background:new 0 0 15 15;" xml:space="preserve">
<style type="text/css">
	.st0{fill:#FFFFFF;}
</style>
<path class="st0" d="M12.8,2.2C11.4,0.8,9.5,0,7.5,0C3.4,0,0.1,3.3,0.1,7.4c0,1.3,0.3,2.6,1,3.7L0,15L4,14c1.1,0.6,2.3,0.9,3.6,0.9
	h0c4.1,0,7.4-3.3,7.4-7.4C15,5.5,14.2,3.6,12.8,2.2z M7.5,13.6L7.5,13.6c-1.1,0-2.2-0.3-3.1-0.9l-0.2-0.1l-2.3,0.6L2.4,11l-0.1-0.2
	c-0.6-1-0.9-2.1-0.9-3.3c0-3.4,2.8-6.2,6.2-6.2c1.7,0,3.2,0.6,4.4,1.8s1.8,2.7,1.8,4.4C13.7,10.8,10.9,13.6,7.5,13.6z M10.9,9
	c-0.2-0.1-1.1-0.5-1.3-0.6C9.5,8.3,9.4,8.3,9.2,8.5C9.1,8.7,8.8,9.1,8.6,9.2c-0.1,0.1-0.2,0.1-0.4,0C8.1,9.2,7.5,9,6.7,8.3
	C6.2,7.8,5.8,7.2,5.7,7c-0.1-0.2,0-0.3,0.1-0.4C6,6.4,6.2,6.2,6.3,6c0.1-0.1,0-0.2,0-0.3c0-0.1-0.4-1-0.6-1.4C5.5,4,5.4,4,5.3,4
	C5.1,4,5,4,4.9,4C4.8,4,4.6,4,4.4,4.2C4.2,4.4,3.8,4.9,3.8,5.8s0.7,1.8,0.8,1.9s1.3,2,3.2,2.8c0.4,0.2,0.8,0.3,1.1,0.4
	C9.2,11,9.6,11,9.9,11c0.4-0.1,1.1-0.4,1.3-0.9c0.2-0.4,0.2-0.8,0.1-0.9C11.2,9.1,11.1,9.1,10.9,9z"/>
</svg>
