<svg width="72" height="17" viewBox="0 0 72 17" fill="none" xmlns="http://www.w3.org/2000/svg">
<path d="M0 13.6178H0.523576C0.738518 13.6178 1.02786 13.2926 1.02786 13.0942V6.03417C1.02786 5.83576 0.738518 5.52988 0.523576 5.52988H0V3.22339H6.6632V5.52988H5.24127V13.4194H7.72688L8.06859 11.1845H10.6451V15.8333H0V13.6178Z" fill="white"/>
<path d="M12.7532 13.618H13.3649C13.5826 13.618 13.8692 13.2929 13.8692 13.0944V6.03443C13.8692 5.83603 13.5798 5.53015 13.3649 5.53015H12.7532V3.22366H19.2014V5.53015H18.5704C18.372 5.53015 18.0854 5.83603 18.0854 6.03443V13.0944C18.0854 13.2929 18.3747 13.618 18.5704 13.618H19.2014V15.8336H12.7532V13.618ZM15.0955 0.142822H18.6806V1.1514L16.8784 2.71937H14.6628L15.0955 0.142822V0.142822Z" fill="white"/>
<path d="M20.5903 13.5985H21.1139C21.3288 13.5985 21.6182 13.2733 21.6182 13.0749V6.01488C21.6182 5.81647 21.3288 5.51059 21.1139 5.51059H20.5903V3.22339H26.6969C30.0643 3.22339 31.8665 4.28708 31.8665 6.48334C31.8665 8.06785 30.9488 8.80637 29.3616 9.18665V9.2583C31.2161 9.54764 32.244 10.5011 32.244 12.2124C32.244 14.6456 30.1359 15.8333 26.7492 15.8333H20.5875V13.5985H20.5903ZM25.7599 8.28555H26.4075C27.4161 8.28555 27.8129 7.81708 27.8129 6.93527C27.8129 6.05346 27.4354 5.60153 26.4268 5.60153H25.7599V8.28555ZM26.4792 13.5103C27.5952 13.5103 28.0113 13.006 28.0113 11.9616C28.0113 10.9172 27.598 10.4846 26.4792 10.4846H25.7599V13.5103H26.4792Z" fill="white"/>
<path d="M33.6494 13.6178H34.1729C34.3879 13.6178 34.6772 13.2926 34.6772 13.0942V6.03417C34.6772 5.83576 34.3879 5.52988 34.1729 5.52988H33.6494V3.22339H44.3854V7.3128H41.9549L41.5939 5.709H38.8906V8.12296H41.7896V10.6802H38.8906V13.4194H41.6656L42.0073 11.5097H44.548V15.8333H33.6494V13.6178Z" fill="white"/>
<path d="M46.0085 13.6178H46.5321C46.7471 13.6178 47.0364 13.2926 47.0364 13.0942V6.03417C47.0364 5.83576 46.7471 5.52988 46.5321 5.52988H46.0085V3.22339H52.2777C55.951 3.22339 57.6099 4.41108 57.6099 6.82504C57.6099 8.32137 56.8907 9.23901 55.1601 9.68818V9.75983C56.458 10.0299 57.0863 10.5893 57.4831 12.3529L57.6815 13.1631C57.7532 13.4882 57.9709 13.6122 58.1307 13.6122H58.4366V15.8278H53.8264L53.413 12.4053C53.2862 11.3774 52.9253 11.0192 52.0076 11.0192H51.2498V13.6122H52.3851V15.8278H46.0085V13.6122V13.6178ZM51.1423 8.84495H51.8616C53.0686 8.84495 53.4103 8.28555 53.4103 7.27697C53.4103 6.2684 53.0493 5.69246 51.8616 5.69246H51.1423V8.84495Z" fill="white"/>
<path d="M58.9602 9.52864C58.9602 5.34829 61.8784 3.02527 65.4801 3.02527C69.0817 3.02527 72 5.34829 72 9.52864C72 13.709 69.1727 16.032 65.4801 16.032C61.7875 16.032 58.9602 13.709 58.9602 9.52864ZM67.6791 9.60028C67.6791 7.05956 66.778 5.87187 65.4828 5.87187C64.1877 5.87187 63.2838 7.05956 63.2838 9.60028C63.2838 12.141 64.1656 13.3838 65.4828 13.3838C66.8001 13.3838 67.6791 12.141 67.6791 9.60028Z" fill="white"/>
</svg>
