<?xml version="1.0" encoding="utf-8"?>
<svg viewBox="0 0 181.5 44.5" xmlns="http://www.w3.org/2000/svg">
  <defs>
    <style>.a{fill:#FFF;}</style>
  </defs>
  <rect x="0.6" y="3.5" width="31" height="40.1" fill="#EF2C42"/>
  <path d="M3.2 33.9h1.3c0.5 0 1.2-0.8 1.2-1.3v-17.4c0-0.5-0.7-1.2-1.2-1.2H3.2V8.3h16.4v5.7h-3.5v19.4h6.1l0.8-5.5h6.4v11.5H3.2V33.9z" classname="a" style="fill: rgb(255, 255, 255);"/>
  <path d="M34.6 33.9h1.5c0.5 0 1.2-0.8 1.2-1.3v-17.4c0-0.5-0.7-1.2-1.2-1.2h-1.5V8.3h15.9v5.7h-1.5c-0.5 0-1.2 0.8-1.2 1.2v17.4c0 0.5 0.7 1.3 1.2 1.3h1.6v5.5H34.6V33.9zM40.4 0.7h8.8v2.5l-4.4 3.9h-5.5L40.4 0.7z" classname="a" style="fill: rgb(255, 255, 255);"/>
  <path d="M53.9 33.8h1.3c0.5 0 1.2-0.8 1.2-1.3v-17.4c0-0.5-0.7-1.2-1.2-1.2h-1.3V8.3h15.1c8.3 0 12.7 2.6 12.7 8 0 3.9-2.3 5.7-6.2 6.7v0.2c4.6 0.7 7.1 3.1 7.1 7.3 0 6-5.2 8.9-13.5 8.9H53.9V33.8zM66.6 20.7h1.6c2.5 0 3.5-1.1 3.5-3.3 0-2.2-0.9-3.3-3.4-3.3h-1.6V20.7zM68.4 33.6c2.8 0 3.8-1.2 3.8-3.8 0-2.5-1-3.6-3.8-3.6h-1.8v7.5H68.4z" classname="a" style="fill: rgb(255, 255, 255);"/>
  <path d="M86.1 33.9h1.3c0.5 0 1.2-0.8 1.2-1.3v-17.4c0-0.5-0.7-1.2-1.2-1.2h-1.3V8.3h26.5v10.1h-6l-0.9-3.9h-6.7v6h7.2v6.3h-7.1v6.8h6.8l0.8-4.7h6.3v10.7H86.1V33.9z" classname="a" style="fill: rgb(255, 255, 255);"/>
  <path d="M116.5 33.9h1.3c0.5 0 1.2-0.8 1.2-1.3v-17.4c0-0.5-0.7-1.2-1.2-1.2h-1.3V8.3h15.5c9.1 0 13.1 2.9 13.1 8.9 0 3.7-1.8 6-6 7.1v0.2c3.2 0.7 4.8 2 5.7 6.4l0.5 2c0.2 0.8 0.7 1.1 1.1 1.1h0.8v5.5h-11.4l-1-8.4c-0.3-2.5-1.2-3.4-3.5-3.4h-1.9v6.4h2.8v5.5h-15.7V33.9zM129.2 22.1h1.8c3 0 3.8-1.4 3.8-3.9 0-2.5-0.9-3.9-3.8-3.9h-1.8V22.1z" classname="a" style="fill: rgb(255, 255, 255);"/>
  <path d="M148.4 23.8c0-10.3 7.2-16 16.1-16s16.1 5.7 16.1 16 -7 16-16.1 16S148.4 34.1 148.4 23.8zM169.9 24c0-6.3-2.2-9.2-5.4-9.2 -3.2 0-5.4 2.9-5.4 9.2 0 6.3 2.2 9.3 5.4 9.3C167.7 33.3 169.9 30.2 169.9 24z" classname="a" style="fill: rgb(255, 255, 255);"/>
</svg>