<?xml version="1.0" encoding="utf-8"?>
<!-- Generator: Adobe Illustrator 25.1.0, SVG Export Plug-In . SVG Version: 6.00 Build 0)  -->
<svg version="1.1" id="Capa_1" xmlns="http://www.w3.org/2000/svg" xmlns:xlink="http://www.w3.org/1999/xlink" x="0px" y="0px"
	 width="200.5px" height="47.8px" viewBox="0 0 200.5 47.8" style="enable-background:new 0 0 200.5 47.8;" xml:space="preserve">
<style type="text/css">
	.st0{fill:#FF2841;}
	.st1{fill:#FFFFFF;}
	.st2{fill:#005FDE;}
</style>
<g id="Logotipo_1_">
	<rect y="3.2" class="st0" width="34.5" height="44.7"/>
	<g>
		<g>
			<path class="st1" d="M2.9,37h1.4c0.6,0,1.4-0.9,1.4-1.4V16.2c0-0.5-0.8-1.4-1.4-1.4H2.9V8.5h18.3v6.3h-3.9v21.6h6.8l0.9-6.1h7.1
				v12.8H2.9V37z"/>
			<path class="st2" d="M37.9,37h1.7c0.6,0,1.4-0.9,1.4-1.4V16.2c0-0.5-0.8-1.4-1.4-1.4h-1.7V8.5h17.7v6.3h-1.7
				c-0.5,0-1.3,0.8-1.3,1.4v19.4c0,0.5,0.8,1.4,1.3,1.4h1.7v6.1H37.9V37z M44.3,0h9.8v2.8l-4.9,4.3h-6.1L44.3,0z"/>
			<path class="st2" d="M59.4,36.9h1.4c0.6,0,1.4-0.9,1.4-1.4V16.1c0-0.5-0.8-1.4-1.4-1.4h-1.4V8.5h16.8c9.2,0,14.2,2.9,14.2,8.9
				c0,4.3-2.5,6.4-6.9,7.4V25c5.1,0.8,7.9,3.4,7.9,8.1c0,6.7-5.8,9.9-15.1,9.9H59.4V36.9z M73.6,22.3h1.8c2.8,0,3.9-1.3,3.9-3.7
				s-1-3.7-3.8-3.7h-1.8V22.3z M75.6,36.7c3.1,0,4.2-1.4,4.2-4.3c0-2.8-1.1-4.1-4.2-4.1h-2v8.3H75.6z"/>
			<path class="st2" d="M95.2,37h1.4c0.6,0,1.4-0.9,1.4-1.4V16.2c0-0.5-0.8-1.4-1.4-1.4h-1.4V8.5h29.5v11.2H118l-1-4.4h-7.4v6.6h8v7
				h-8v7.5h7.6l0.9-5.2h7v11.9H95.2V37z"/>
			<path class="st2" d="M129.2,37h1.4c0.6,0,1.4-0.9,1.4-1.4V16.2c0-0.5-0.8-1.4-1.4-1.4h-1.4V8.5h17.2c10.1,0,14.6,3.3,14.6,9.9
				c0,4.1-2,6.6-6.7,7.9v0.2c3.6,0.7,5.3,2.3,6.4,7.1l0.5,2.2c0.2,0.9,0.8,1.2,1.2,1.2h0.8v6.1h-12.7l-1.1-9.4
				c-0.3-2.8-1.3-3.8-3.9-3.8h-2.1V37h3.1v6.1h-17.5V37z M143.2,23.9h2c3.3,0,4.3-1.5,4.3-4.3s-1-4.3-4.3-4.3h-2V23.9z"/>
			<path class="st2" d="M164.7,25.8c0-11.5,8-17.8,17.9-17.8c9.9,0,17.9,6.4,17.9,17.8s-7.8,17.8-17.9,17.8
				C172.5,43.6,164.7,37.2,164.7,25.8z M188.6,25.9c0-7-2.5-10.2-6-10.2c-3.6,0-6,3.3-6,10.2c0,7,2.4,10.4,6,10.4
				C186.2,36.3,188.6,32.9,188.6,25.9z"/>
		</g>
	</g>
</g>
</svg>
