<svg width="28" height="23" viewBox="0 0 28 23" fill="none" xmlns="http://www.w3.org/2000/svg">
<path fill-rule="evenodd" clip-rule="evenodd" d="M1.91494 9.87443C9.51591 6.63971 14.5256 4.42647 16.9441 3.40498C24.1996 0.510747 25.5816 0 26.6181 0C26.7908 0 27.3091 -3.29798e-07 27.6546 0.340497C28.0001 0.510746 28.0001 0.851245 28.0001 1.02149C28.0001 1.19174 28.0001 1.70249 28.0001 2.04299C27.6546 6.12896 25.9271 15.8331 25.0633 20.4299C24.7178 22.3026 24.0268 22.9836 23.3358 22.9836C21.7811 23.1538 20.7446 21.9621 19.1899 21.1109C16.9441 19.5786 15.5621 18.7274 13.4891 17.3654C10.8979 15.6629 12.6254 14.8117 14.0074 13.2794C14.3529 12.9389 21.0901 6.9802 21.0901 6.46946C21.0901 6.46946 21.0901 6.12896 20.9173 5.95871C20.7446 5.78846 20.5718 5.78846 20.3991 5.95871C20.2264 5.95871 16.5986 8.3422 9.5159 13.1092C8.47941 13.7902 7.61567 14.1307 6.75192 14.1307C5.88817 14.1307 3.98793 13.6199 2.77869 13.1092C1.22395 12.5984 -0.158046 12.2579 0.014703 11.4067C0.014703 10.8959 0.7057 10.3852 1.91494 9.87443Z" fill="white"/>
</svg>
